#define max_hover_width 16
#define max_hover_height 16
static unsigned char max_hover_bits[] = {
   0x00, 0x00, 0x00, 0x00, 0x80, 0x01, 0x80, 0x01, 0x80, 0x01, 0x80, 0x01,
   0x80, 0x01, 0xfc, 0x3f, 0xfc, 0x3f, 0x80, 0x01, 0x80, 0x01, 0x80, 0x01,
   0x80, 0x01, 0x80, 0x01, 0x00, 0x00, 0x00, 0x00};
